<?xml version="1.0" standalone="no"?>
<!DOCTYPE svg PUBLIC "-//W3C//DTD SVG 20010904//EN"
 "http://www.w3.org/TR/2001/REC-SVG-20010904/DTD/svg10.dtd">
<svg version="1.0" xmlns="http://www.w3.org/2000/svg"
 width="608.000000pt" height="623.000000pt" viewBox="0 0 608.000000 623.000000"
 preserveAspectRatio="xMidYMid meet">

<g transform="translate(0.000000,623.000000) scale(0.100000,-0.100000)"
fill="#000000" stroke="none">
<path d="M2967 6143 c-23 -23 12 -73 51 -73 25 0 57 43 48 65 -8 22 -29 19
-23 -4 6 -23 -10 -51 -29 -51 -14 0 -23 14 -28 44 -3 20 -11 28 -19 19z"/>
<path d="M3096 6141 c-4 -6 -2 -19 3 -30 8 -14 8 -21 -2 -24 -6 -3 5 -6 25 -6
27 -1 41 5 52 21 18 26 20 38 7 38 -5 0 -13 -9 -16 -20 -6 -20 -44 -28 -46
-10 -1 6 -2 14 -3 19 -2 16 -14 23 -20 12z"/>
<path d="M2793 6133 c-7 -2 -13 -9 -13 -14 0 -14 26 -10 40 6 10 12 10 15 -1
14 -8 0 -20 -3 -26 -6z"/>
<path d="M2841 6118 c-1 -31 15 -46 32 -29 8 8 8 11 -1 11 -7 0 -17 10 -22 23
-8 21 -9 21 -9 -5z"/>
<path d="M3210 6126 c0 -14 6 -17 25 -14 21 4 25 1 25 -18 0 -25 24 -54 45
-54 42 0 61 81 20 89 -20 3 -20 3 -1 -17 33 -38 -3 -72 -38 -36 -19 18 -20 30
-5 40 19 12 -13 24 -34 12 -15 -7 -22 -7 -28 3 -7 11 -9 10 -9 -5z"/>
<path d="M2898 6080 c8 -84 -16 -158 -32 -97 -9 38 -64 107 -85 107 -42 0 -35
-21 20 -62 22 -16 44 -46 55 -73 11 -25 22 -45 25 -45 11 0 47 76 54 113 8 40
-8 92 -29 100 -10 4 -12 -7 -8 -43z"/>
<path d="M2679 6104 c-9 -11 -23 -14 -46 -11 -33 6 -46 -9 -18 -20 10 -3 -9
-14 -50 -28 -75 -25 -120 -63 -160 -137 -55 -100 -71 -241 -40 -345 57 -193
282 -259 424 -125 28 26 66 73 85 105 19 32 36 54 39 50 2 -4 10 -26 17 -48
20 -64 58 -132 82 -149 71 -50 148 16 148 126 l0 41 -22 -20 c-32 -29 -60 -35
-94 -23 -38 15 -72 47 -94 90 l-18 35 89 204 c49 112 89 206 89 208 0 2 -33 2
-72 0 l-73 -5 -40 -111 c-38 -106 -55 -134 -55 -91 0 36 -40 126 -68 153 -31
29 -90 57 -124 57 -20 1 -21 2 -6 11 21 12 43 49 30 49 -5 0 -16 -7 -23 -16z
m55 -148 c96 -40 136 -184 83 -300 -54 -117 -147 -228 -203 -242 -114 -29
-184 134 -139 324 42 178 146 265 259 218z"/>
<path d="M3376 6111 c-9 -14 4 -41 19 -41 7 0 18 -7 25 -15 19 -23 38 -18 55
15 18 34 5 41 -17 8 -9 -13 -19 -18 -27 -14 -9 6 -9 11 0 22 6 8 9 18 5 22 -4
4 -12 -1 -17 -11 -12 -20 -31 -13 -22 8 6 16 -12 21 -21 6z"/>
<path d="M2554 6085 c-5 -13 -9 -13 -22 -3 -13 11 -14 10 -10 -2 7 -23 35 -24
48 -1 7 15 7 21 0 21 -6 0 -13 -7 -16 -15z"/>
<path d="M3501 6081 c-8 -5 -11 -16 -7 -26 6 -15 9 -16 28 -3 12 8 24 20 26
26 4 14 -27 16 -47 3z"/>
<path d="M2471 6049 c-9 -27 -13 -30 -26 -19 -13 10 -15 9 -15 -9 0 -32 26
-25 49 13 23 37 25 46 12 46 -5 0 -14 -14 -20 -31z"/>
<path d="M3123 6044 c-4 -10 0 -20 10 -26 24 -13 21 -28 -5 -28 -22 -1 -23 -1
-4 -15 19 -14 19 -15 -7 -15 -34 0 -35 -16 -2 -22 15 -3 25 -1 25 6 0 6 7 24
15 40 16 30 12 46 -11 46 -17 0 -19 16 -1 23 9 4 9 6 -1 6 -7 1 -15 -6 -19
-15z"/>
<path d="M2387 6017 c6 -41 -17 -67 -42 -47 -8 7 -15 23 -15 36 0 13 -4 24
-10 24 -16 0 -12 -47 6 -64 21 -21 47 -20 67 2 21 23 23 82 3 82 -11 0 -13 -8
-9 -33z"/>
<path d="M3535 6031 c-22 -10 -52 -33 -66 -52 -30 -39 -69 -120 -69 -144 0 -9
-4 -13 -10 -10 -5 3 -10 19 -10 34 0 121 -110 218 -183 161 -52 -41 -23 -150
33 -120 35 18 81 8 104 -23 32 -43 28 -201 -7 -317 -14 -47 -23 -88 -19 -92 4
-4 28 -4 52 0 l44 7 17 95 c36 202 79 313 140 364 25 21 40 26 72 24 91 -7
101 -96 42 -390 -57 -285 -46 -388 40 -388 18 0 42 8 54 18 l22 17 -20 111
c-18 102 -18 129 -8 322 12 229 5 297 -35 348 -42 53 -121 68 -193 35z"/>
<path d="M3382 6028 c-15 -15 -15 -55 -1 -97 14 -39 23 -39 39 -2 6 16 20 37
31 47 10 9 19 24 19 31 0 27 -25 7 -47 -37 -17 -33 -24 -39 -29 -26 -4 9 -4
35 -1 56 6 45 6 45 -11 28z"/>
<path d="M2232 5985 c-18 -15 -42 -25 -60 -25 -17 0 -38 -7 -46 -16 -9 -8 -20
-13 -25 -9 -5 3 -12 1 -16 -5 -3 -5 0 -10 7 -10 7 0 24 -16 37 -35 19 -28 21
-39 12 -48 -18 -18 -46 5 -46 37 1 29 -10 35 -19 10 -11 -28 -6 -43 18 -59 54
-35 88 25 45 79 l-20 26 38 -1 c21 -1 48 -4 61 -7 22 -7 22 -7 -8 -35 -34 -33
-36 -40 -14 -61 29 -29 54 -11 32 23 -10 17 -9 23 6 40 15 16 29 20 65 18 35
-1 46 2 46 13 0 10 -12 16 -40 18 -22 1 -51 5 -64 8 -24 5 -24 5 10 34 19 16
29 29 22 30 -6 0 -25 -11 -41 -25z"/>
<path d="M3770 5975 c0 -66 40 -135 79 -135 36 0 53 71 28 119 -13 27 -41 42
-31 18 3 -9 -3 -16 -17 -20 -30 -8 -39 -1 -39 29 0 13 -4 24 -10 24 -5 0 -10
-16 -10 -35z m94 -47 c10 -38 7 -66 -8 -71 -17 -7 -31 8 -45 46 -8 21 -7 28 7
36 27 16 39 13 46 -11z"/>
<path d="M3943 5932 c-13 -2 -23 -8 -23 -14 0 -6 11 -8 25 -6 34 7 33 -15 -2
-40 -16 -11 -25 -24 -21 -28 5 -4 17 1 29 11 17 16 22 17 29 5 5 -8 12 -11 15
-8 4 4 3 13 -1 20 -5 7 -7 20 -6 29 4 21 -18 36 -45 31z"/>
<path d="M3086 5879 c-43 -33 -33 -75 27 -119 32 -23 42 -36 32 -38 -9 -2 -32
8 -51 23 -19 15 -42 24 -50 21 -11 -4 -13 0 -8 19 10 40 -3 29 -26 -22 -14
-32 -17 -50 -10 -57 7 -7 10 -3 10 12 0 15 9 26 26 32 33 13 34 13 28 -5 -4
-10 5 -20 30 -30 46 -19 65 -19 73 2 4 10 -2 23 -17 35 -12 10 -21 20 -19 21
2 1 13 7 24 13 31 17 33 78 3 98 -30 21 -40 20 -72 -5z m67 -21 c15 -23 -6
-68 -32 -68 -29 0 -44 33 -29 65 13 29 44 31 61 3z"/>
<path d="M2026 5855 c-8 -39 -21 -46 -31 -14 -7 22 -36 23 -43 0 -3 -9 1 -11
16 -6 17 5 23 1 28 -19 3 -13 3 -34 -1 -46 -5 -16 -3 -21 6 -18 7 2 18 19 24
37 l11 33 15 -23 c10 -15 21 -20 32 -16 24 9 21 30 -2 24 -12 -3 -22 1 -27 12
-8 19 -8 19 1 49 4 16 2 22 -8 22 -9 0 -17 -14 -21 -35z"/>
<path d="M2285 5863 c5 -23 4 -26 -6 -15 -7 6 -20 12 -28 12 -7 0 6 -13 30
-29 24 -16 48 -27 53 -24 5 4 0 10 -12 14 -16 6 -22 17 -22 39 0 16 -5 30 -11
30 -7 0 -9 -10 -4 -27z"/>
<path d="M3257 5879 c-21 -12 -47 -61 -47 -88 0 -11 9 -25 19 -31 42 -22 112
78 81 115 -14 17 -28 18 -53 4z m43 -24 c0 -15 -6 -25 -14 -25 -22 0 -30 19
-16 35 18 22 30 18 30 -10z m-25 -49 c0 -10 -8 -24 -17 -30 -24 -15 -38 2 -27
32 11 28 44 26 44 -2z"/>
<path d="M4036 5874 c-11 -29 -6 -67 11 -86 15 -17 15 -18 -15 -18 -17 0 -38
-7 -47 -16 -15 -16 -15 -18 2 -35 19 -19 89 -39 111 -32 6 3 12 11 12 18 0 10
-17 15 -57 17 -34 2 -58 8 -61 16 -3 9 15 12 67 12 59 0 74 4 97 23 18 16 25
30 21 40 -9 23 -24 21 -32 -3 -9 -29 -40 -43 -65 -30 -22 12 -29 74 -9 86 8 4
7 9 -2 15 -20 12 -26 11 -33 -7z"/>
<path d="M1852 5798 c-38 -27 -39 -56 -1 -77 23 -13 30 -12 72 8 25 12 48 29
51 38 11 27 -4 29 -24 3 -19 -24 -20 -24 -20 -4 0 18 -27 54 -41 54 -2 0 -19
-10 -37 -22z m59 -14 c11 -14 10 -19 -10 -35 -28 -23 -44 -24 -62 -3 -11 14
-10 19 10 35 28 23 44 24 62 3z"/>
<path d="M3836 5805 c-3 -10 1 -15 13 -15 36 0 41 -53 10 -86 -12 -13 -18 -28
-13 -35 5 -8 19 1 45 32 36 42 38 43 39 18 0 -34 23 -64 44 -56 22 9 20 37 -3
37 -30 0 -37 37 -12 64 20 21 29 56 14 56 -4 0 -24 -19 -45 -42 l-37 -43 -1
31 c0 46 -40 75 -54 39z"/>
<path d="M4171 5755 c-42 -45 -48 -59 -32 -70 5 -3 11 5 13 17 3 19 10 23 48
26 58 4 78 22 25 22 -38 0 -38 0 -20 20 10 11 16 22 13 25 -3 3 -24 -15 -47
-40z"/>
<path d="M2144 5773 c-14 -15 -16 -28 -8 -103 14 -137 10 -319 -8 -360 -24
-52 -61 -87 -106 -101 -50 -15 -86 -6 -118 28 -38 41 -47 87 -51 263 -2 91 -6
175 -8 187 -8 35 -38 46 -79 29 -57 -24 -58 -66 -10 -259 15 -58 29 -157 35
-240 12 -162 31 -283 51 -323 7 -15 25 -36 40 -47 49 -37 130 0 113 52 -3 10
-32 53 -64 96 -57 76 -82 133 -97 220 l-6 40 38 -38 c51 -52 103 -77 159 -77
74 0 131 41 173 124 l19 40 18 -37 c24 -52 60 -77 106 -77 34 0 42 5 59 33 18
29 30 137 15 137 -3 0 -20 -16 -37 -36 -26 -30 -36 -35 -67 -32 -27 2 -40 11
-57 36 -20 28 -21 37 -11 70 6 20 11 96 11 169 0 107 2 130 13 122 16 -14 59
-4 66 15 5 12 1 13 -19 5 -26 -9 -44 -5 -44 12 0 5 7 9 15 9 8 0 15 5 15 11 0
6 -7 9 -15 6 -8 -4 -17 -2 -20 3 -6 9 26 23 43 18 5 -2 11 2 11 7 3 15 -38 18
-55 4 -9 -8 -13 -21 -10 -35 4 -13 2 -26 -4 -29 -5 -3 -10 2 -10 12 0 52 -60
81 -96 46z"/>
<path d="M3240 5720 c-38 -38 -14 -100 38 -100 16 0 20 -4 15 -16 -4 -11 -2
-15 7 -12 18 6 43 74 36 101 -5 21 -42 47 -66 47 -6 0 -19 -9 -30 -20z m60
-18 c17 -13 21 -24 16 -40 -12 -38 -76 -20 -76 22 0 40 24 48 60 18z"/>
<path d="M3796 5688 c-21 -30 -20 -105 3 -147 l18 -35 18 38 c10 20 37 50 61
67 47 32 53 43 30 52 -20 8 -58 -24 -81 -67 -11 -20 -23 -36 -27 -36 -12 0
-10 108 2 131 15 27 -5 25 -24 -3z"/>
<path d="M4136 5669 c-212 -41 -245 -60 -311 -185 -21 -40 -23 -50 -12 -61 12
-12 19 -9 46 16 36 34 91 54 206 76 44 8 80 15 81 15 0 0 4 -73 8 -162 8 -203
20 -279 52 -346 35 -71 81 -102 154 -102 66 0 92 16 121 73 20 39 39 167 26
167 -4 0 -22 -16 -40 -36 -28 -30 -42 -37 -83 -41 -58 -6 -93 16 -123 76 -23
44 -44 207 -39 306 l3 70 53 10 c29 5 53 12 54 15 0 3 -3 35 -7 73 -6 53 -11
67 -24 66 -9 -1 -83 -14 -165 -30z"/>
<path d="M3035 5678 c-75 -41 -53 -138 32 -138 32 0 45 8 91 55 31 33 52 63
50 73 -6 30 -32 19 -39 -16 -9 -44 -29 -66 -29 -31 0 30 -9 43 -37 58 -27 14
-42 14 -68 -1z m79 -24 c21 -21 20 -36 -4 -62 -23 -24 -62 -37 -86 -28 -27 10
-13 58 25 83 40 27 45 28 65 7z"/>
<path d="M1660 5639 c11 -8 12 -12 3 -16 -7 -2 -13 -9 -13 -15 0 -6 6 -6 15 2
20 17 19 1 -2 -22 -14 -16 -14 -18 -1 -18 9 0 21 7 28 15 11 13 11 20 0 40 -7
14 -20 25 -29 25 -14 0 -14 -2 -1 -11z"/>
<path d="M2274 5635 c-8 -21 4 -35 32 -35 26 0 32 18 12 38 -16 16 -37 15 -44
-3z m33 -21 c-9 -9 -28 6 -21 18 4 6 10 6 17 -1 6 -6 8 -13 4 -17z"/>
<path d="M3210 5602 c0 -18 -7 -49 -15 -69 -10 -24 -12 -40 -6 -46 13 -13 31
32 31 74 0 57 27 23 43 -56 4 -18 5 -18 12 -2 11 26 -2 63 -35 100 l-29 32 -1
-33z"/>
<path d="M4408 5603 c-26 -30 -38 -60 -38 -95 0 -42 15 -58 56 -58 23 0 33 -5
37 -20 7 -26 54 -37 86 -19 34 19 49 62 31 84 -12 15 -16 13 -32 -18 -19 -38
-53 -56 -71 -38 -8 8 -7 19 6 40 22 38 22 63 0 59 -11 -2 -20 -15 -23 -33 -4
-24 -10 -30 -30 -30 -21 0 -25 4 -22 25 1 14 14 42 28 63 25 37 25 57 0 57 -7
0 -20 -8 -28 -17z"/>
<path d="M2275 5570 c-3 -5 3 -15 14 -22 20 -12 20 -12 0 -34 -42 -44 17 -99
61 -59 36 32 27 52 -46 103 -18 12 -18 13 1 6 11 -3 29 -8 40 -11 20 -4 20 -4
1 11 -22 18 -62 21 -71 6z m70 -71 c10 -30 -18 -57 -39 -39 -19 15 -20 32 -4
48 18 18 36 14 43 -9z"/>
<path d="M1602 5552 c-10 -10 -27 -40 -38 -65 -10 -26 -22 -47 -25 -47 -4 0
-9 19 -13 42 -6 36 -9 40 -21 27 -12 -11 -13 -22 -4 -52 6 -21 9 -52 7 -70 -3
-30 -6 -32 -45 -35 -29 -2 -43 -8 -43 -18 0 -13 18 -19 50 -14 27 3 51 33 87
105 19 39 48 81 65 96 26 22 28 27 15 38 -13 10 -19 9 -35 -7z"/>
<path d="M2883 5508 c-44 -48 -57 -114 -29 -137 12 -10 14 -6 14 24 0 37 19
95 31 95 4 0 12 -19 18 -42 16 -58 35 -83 58 -75 16 7 16 9 1 30 -41 55 -56
84 -56 105 0 12 -4 22 -8 22 -5 0 -18 -10 -29 -22z"/>
<path d="M4250 5515 c-16 -19 -5 -50 26 -70 39 -25 40 -10 2 23 -18 17 -29 34
-25 38 10 11 43 -11 39 -26 -1 -6 2 -9 8 -5 14 9 13 21 -6 39 -19 20 -28 20
-44 1z"/>
<path d="M1646 5498 c-20 -31 -24 -80 -7 -86 9 -3 11 1 6 17 -4 14 1 31 15 51
24 34 50 40 50 11 0 -24 -25 -45 -45 -37 -9 3 -13 2 -10 -4 12 -20 55 -11 67
15 22 49 -46 79 -76 33z"/>
<path d="M4055 5475 c-23 -23 -33 -45 -19 -45 3 0 15 11 26 25 27 34 51 34 38
-1 -13 -34 -13 -67 2 -62 6 2 12 17 12 34 1 16 5 39 10 52 6 19 4 22 -19 22
-14 0 -37 -11 -50 -25z"/>
<path d="M3170 5445 c0 -8 -9 -29 -20 -47 -23 -37 -26 -55 -7 -40 6 5 31 16
55 23 23 6 42 16 42 22 0 9 -28 5 -66 -10 -17 -6 -17 -5 -1 17 19 27 22 50 7
50 -5 0 -10 -7 -10 -15z"/>
<path d="M3884 5442 c-29 -23 -47 -60 -39 -80 5 -13 10 -10 25 15 20 33 48 53
74 53 25 0 19 -26 -10 -45 -19 -12 -23 -20 -15 -28 7 -7 16 -5 30 7 11 10 27
16 36 12 23 -8 3 -40 -35 -56 -28 -12 -38 -29 -24 -43 9 -8 55 16 77 41 24 26
18 63 -10 78 -13 6 -20 14 -16 17 11 11 -29 47 -51 47 -12 0 -31 -8 -42 -18z"/>
<path d="M3265 5441 c-3 -5 8 -19 25 -31 37 -27 38 -38 3 -42 -30 -3 -47 -38
-19 -38 9 0 16 7 16 15 0 22 40 18 66 -6 13 -12 28 -18 35 -14 8 5 -1 18 -27
41 -37 32 -38 33 -14 34 34 1 54 15 47 34 -8 20 -27 21 -27 1 0 -10 -10 -15
-29 -15 -16 0 -34 7 -41 15 -14 17 -26 19 -35 6z"/>
<path d="M2364 5410 c5 -30 5 -30 -15 -16 -33 23 -79 -4 -79 -46 0 -27 44 -52
68 -39 33 18 60 131 31 131 -7 0 -9 -11 -5 -30z m-16 -46 c2 -11 -6 -28 -16
-37 -17 -16 -20 -16 -32 -2 -10 12 -10 21 -1 41 13 30 45 29 49 -2z"/>
<path d="M4332 5418 c-19 -19 -14 -35 24 -78 l36 -40 -30 0 c-45 0 -82 -36
-89 -87 -5 -37 -2 -45 25 -73 35 -34 83 -40 132 -15 36 19 50 43 50 87 0 41
-21 73 -85 128 -86 74 -66 100 23 30 52 -42 66 -47 77 -30 10 17 -16 41 -70
66 -57 27 -76 29 -93 12z m100 -163 c25 -55 -31 -146 -80 -130 -26 8 -46 58
-37 92 10 42 34 63 72 63 26 0 36 -6 45 -25z"/>
<path d="M4614 5415 c-5 -11 -3 -20 4 -23 9 -3 9 -9 2 -23 -8 -13 -7 -19 0
-19 6 0 16 11 22 25 9 21 9 29 -5 42 -15 15 -17 15 -23 -2z"/>
<path d="M2800 5390 c0 -21 -15 -27 -25 -10 -3 6 -10 10 -16 10 -5 0 -9 -4 -9
-10 0 -5 7 -10 15 -10 8 0 15 -9 15 -20 0 -11 5 -20 10 -20 6 0 10 7 10 16 0
13 3 14 15 4 8 -6 20 -10 27 -7 8 4 7 6 -4 6 -18 1 -22 10 -19 44 1 9 -3 17
-8 17 -6 0 -11 -9 -11 -20z"/>
<path d="M4253 5393 c-22 -8 -14 -19 14 -18 18 0 29 -6 31 -17 4 -21 -27 -25
-46 -6 -9 9 -12 8 -12 -4 0 -18 33 -33 50 -23 5 3 10 1 10 -4 0 -6 5 -11 10
-11 13 0 13 46 0 71 -10 18 -31 23 -57 12z"/>
<path d="M1675 5373 c4 -10 14 -38 21 -62 8 -24 19 -50 25 -57 13 -16 39 -19
39 -4 0 6 -7 10 -15 10 -26 0 -28 28 -6 70 12 22 21 46 21 53 -1 17 -40 -32
-40 -50 0 -24 -17 -5 -23 27 -4 16 -12 30 -18 30 -7 0 -8 -7 -4 -17z"/>
<path d="M1560 5355 c-21 -55 -22 -75 -6 -100 20 -31 74 -34 99 -7 37 40 9
102 -46 102 -19 0 -25 4 -21 15 4 8 1 15 -5 15 -6 0 -16 -11 -21 -25z m79 -48
c27 -30 19 -57 -18 -57 -35 0 -51 17 -51 52 0 23 4 28 23 28 13 0 33 -11 46
-23z"/>
<path d="M2452 5368 c-19 -19 -14 -55 9 -72 23 -16 41 -12 78 16 13 10 27 16
30 12 3 -3 -5 -14 -19 -24 -14 -10 -21 -22 -16 -27 4 -4 19 5 33 21 17 21 21
32 13 40 -7 7 -16 7 -30 -2 -16 -10 -20 -10 -20 2 0 36 -53 59 -78 34z m58
-24 c11 -12 11 -18 -2 -30 -12 -13 -20 -14 -37 -5 -21 12 -27 31 -14 44 11 12
40 7 53 -9z"/>
<path d="M4055 5350 c-26 -29 -33 -122 -11 -155 37 -56 86 -9 86 82 0 50 -21
93 -44 93 -7 0 -21 -9 -31 -20z m55 -51 c0 -37 -2 -39 -31 -39 -31 0 -31 1
-24 38 4 20 11 43 17 50 18 21 38 -6 38 -49z m-7 -55 c9 -10 -14 -64 -28 -64
-14 0 -25 22 -25 51 0 13 7 19 23 19 13 0 26 -3 30 -6z"/>
<path d="M2643 5339 c-18 -12 -33 -25 -33 -30 0 -5 15 -9 33 -8 26 0 28 2 12
9 -19 7 -18 9 8 19 16 6 37 11 48 11 11 0 17 5 14 10 -10 16 -48 11 -82 -11z"/>
<path d="M4525 5340 c-12 -20 5 -27 57 -22 l52 5 -27 -33 c-25 -29 -26 -35
-14 -48 20 -19 43 -6 26 14 -18 22 16 54 58 54 40 0 42 24 2 27 -13 0 -52 4
-86 7 -38 4 -64 2 -68 -4z"/>
<path d="M3828 5316 c-17 -9 -23 -20 -23 -46 0 -28 6 -39 33 -56 18 -13 38
-25 45 -27 7 -2 9 -7 5 -11 -3 -4 -20 0 -37 8 -37 20 -41 20 -41 1 0 -8 14
-17 35 -21 63 -12 87 13 38 40 -16 8 -22 15 -16 16 7 0 20 11 28 24 31 48 -15
98 -67 72z m47 -46 c0 -28 -4 -36 -22 -38 -24 -4 -38 25 -28 59 5 14 14 19 28
17 18 -2 22 -10 22 -38z"/>
<path d="M1465 5280 c8 -25 -8 -26 -58 -5 -45 19 -57 19 -57 1 0 -8 15 -17 38
-21 20 -3 46 -9 58 -11 29 -7 59 23 43 42 -17 21 -31 17 -24 -6z"/>
<path d="M4669 5281 c-19 -16 -22 -23 -13 -38 12 -20 62 -48 71 -40 3 3 6 20
6 37 2 22 -4 36 -19 46 -19 13 -24 12 -45 -5z m49 -28 c3 -18 -2 -23 -17 -23
-21 0 -45 32 -34 44 15 15 48 0 51 -21z"/>
<path d="M1280 5240 c0 -5 5 -10 10 -10 7 0 7 -6 0 -19 -12 -24 -13 -54 -1
-47 5 3 11 16 14 28 2 13 8 31 12 41 5 13 2 17 -14 17 -12 0 -21 -4 -21 -10z"/>
<path d="M3932 5238 c-29 -29 -7 -78 35 -78 13 0 23 -5 23 -12 0 -9 3 -9 11
-1 16 16 15 83 -1 94 -21 12 -54 11 -68 -3z m49 -8 c28 -16 25 -50 -5 -50 -33
0 -53 25 -36 45 15 18 16 18 41 5z"/>
<path d="M1349 5224 c-7 -8 -14 -40 -17 -70 -4 -43 -1 -59 13 -74 19 -21 60
-27 70 -10 4 6 16 3 32 -10 14 -11 31 -20 38 -20 25 0 64 42 71 75 7 40 -11
101 -33 109 -22 9 -23 6 -11 -39 18 -70 -26 -143 -61 -101 -10 11 -10 20 -1
36 14 25 7 50 -14 50 -10 0 -16 -13 -18 -42 -2 -35 -7 -43 -23 -43 -17 0 -20
6 -19 45 1 25 5 57 9 71 8 31 -16 47 -36 23z"/>
<path d="M2196 5224 c-11 -28 -6 -81 8 -93 11 -10 13 -3 9 36 l-4 48 28 -33
c24 -28 53 -43 53 -27 0 6 -78 85 -84 85 -2 0 -7 -7 -10 -16z"/>
<path d="M4546 5233 c-12 -12 -6 -21 19 -27 14 -4 25 -11 25 -17 0 -6 -4 -8
-10 -4 -13 8 -50 -31 -50 -53 0 -27 29 -62 51 -62 62 0 78 58 34 116 -28 36
-58 57 -69 47z m62 -75 c14 -14 16 -64 3 -72 -25 -16 -69 37 -58 68 7 19 38
21 55 4z"/>
<path d="M1718 5182 c-11 -28 -12 -28 -30 -10 -36 36 -98 9 -98 -42 0 -29 39
-70 67 -70 26 0 62 48 69 90 9 56 27 64 23 9 -2 -24 1 -45 6 -46 6 -2 10 18
10 44 0 38 -4 48 -18 51 -12 3 -22 -5 -29 -26z m-24 -45 c9 -15 7 -21 -9 -33
-25 -19 -65 -14 -79 9 -9 15 -7 21 9 33 25 19 65 14 79 -9z"/>
<path d="M4682 5168 c-20 -20 -14 -28 18 -21 44 8 38 -11 -21 -68 -43 -41 -49
-52 -39 -64 17 -20 31 -8 76 66 29 48 33 62 24 79 -12 22 -40 26 -58 8z"/>
<path d="M1880 5124 c0 -35 6 -51 26 -71 28 -28 47 -24 21 4 -8 10 -20 30 -26
46 -13 33 0 36 36 7 30 -24 63 -26 63 -5 0 9 -9 15 -24 15 -13 0 -40 11 -60
25 l-36 24 0 -45z"/>
<path d="M3745 5159 c-6 -9 -2 -11 14 -6 17 4 27 -3 47 -35 25 -40 45 -48 25
-10 -15 27 -14 39 1 24 13 -13 58 -17 58 -4 0 4 -21 13 -47 19 -27 7 -58 15
-69 18 -13 4 -25 2 -29 -6z"/>
<path d="M1216 5130 c-16 -29 -16 -33 -2 -55 33 -50 108 -20 91 35 -5 16 -51
50 -67 50 -2 0 -12 -14 -22 -30z m68 -19 c21 -24 13 -41 -18 -41 -28 0 -50 24
-42 45 8 21 40 19 60 -4z"/>
<path d="M3910 5139 c0 -6 11 -20 25 -31 32 -25 32 -36 -2 -40 -20 -2 -28 -9
-28 -22 0 -27 21 -31 28 -6 7 26 38 26 62 0 18 -19 45 -27 45 -13 0 4 -14 22
-32 40 -28 29 -30 33 -12 33 32 0 56 22 44 40 -9 13 -12 13 -21 -2 -12 -22
-65 -24 -73 -3 -6 17 -36 20 -36 4z"/>
<path d="M4076 5131 c-21 -23 -11 -47 30 -80 29 -23 44 -27 44 -11 0 6 -7 10
-15 10 -8 0 -15 3 -15 6 0 3 7 12 15 20 20 20 19 30 -5 54 -25 25 -32 25 -54
1z m44 -16 c7 -8 10 -22 6 -30 -8 -22 -46 -1 -46 25 0 24 22 26 40 5z"/>
<path d="M4770 5142 c0 -5 14 -21 30 -37 17 -16 30 -34 30 -41 0 -23 -19 -25
-42 -5 -12 12 -25 21 -30 21 -16 0 -7 -16 24 -41 22 -19 29 -31 24 -44 -7 -18
-14 -17 -74 7 -30 12 -35 11 -47 -6 -16 -21 -5 -53 21 -63 25 -10 30 8 7 24
-13 9 -23 19 -23 24 0 14 28 10 55 -7 37 -24 69 -15 73 21 2 16 11 34 19 41
10 6 14 18 10 28 -5 12 -1 16 14 16 12 0 19 5 16 13 -2 6 -13 12 -25 12 -11 0
-30 10 -42 23 -21 22 -40 29 -40 14z"/>
<path d="M2050 5078 c-25 -13 -55 -38 -68 -57 -21 -32 -21 -35 -6 -53 21 -22
36 -23 77 -2 72 37 106 91 75 122 -17 17 -27 15 -78 -10z m80 -12 c0 -8 -14
-26 -32 -41 -30 -25 -33 -26 -45 -9 -18 25 -17 31 15 48 35 19 62 20 62 2z
m-90 -56 c8 -15 6 -21 -9 -30 -45 -24 -67 -4 -34 32 21 23 30 23 43 -2z"/>
<path d="M1765 5043 c16 -31 20 -63 7 -63 -5 0 -19 11 -32 25 -24 26 -50 33
-50 15 0 -6 10 -14 23 -19 12 -5 31 -18 41 -30 26 -28 33 -27 41 9 7 31 -11
81 -32 88 -9 2 -8 -4 2 -25z"/>
<path d="M4520 5020 c-13 -31 -6 -100 10 -100 5 0 12 9 15 20 3 11 22 32 41
46 18 14 31 30 28 35 -8 14 -38 -6 -54 -35 -7 -14 -18 -26 -23 -26 -10 0 -5
42 8 73 4 9 3 17 -3 17 -5 0 -15 -13 -22 -30z"/>
<path d="M1244 5029 c-37 -11 -114 -90 -143 -148 -111 -216 -24 -405 208 -452
59 -13 62 -15 58 -39 -3 -14 -11 -62 -18 -107 -16 -107 -8 -130 47 -128 64 1
67 7 61 99 -4 45 -9 99 -13 122 l-6 40 68 13 c188 34 296 151 296 320 0 171
-92 281 -234 281 -142 0 -203 -130 -196 -418 l3 -142 -28 0 c-36 0 -95 25
-126 53 -100 93 -68 326 54 384 27 13 38 27 47 56 19 64 -8 87 -78 66z m351
-63 c57 -24 80 -81 80 -196 -1 -83 -4 -102 -27 -146 -30 -57 -94 -119 -144
-140 -69 -29 -67 -35 -62 174 3 149 8 195 21 227 25 55 55 85 95 94 1 1 18 -5
37 -13z"/>
<path d="M3965 4999 c-11 -17 3 -23 20 -9 34 28 64 -26 33 -59 -11 -10 -9 -12
7 -9 26 4 32 44 9 69 -19 21 -59 26 -69 8z"/>
<path d="M4099 4982 c-26 -23 -31 -33 -25 -55 3 -15 13 -27 21 -27 9 0 15 -9
15 -23 0 -66 91 -63 126 4 22 43 11 47 -32 10 -21 -19 -44 -31 -57 -29 -30 4
-32 26 -4 37 30 12 41 27 27 36 -6 4 -20 -1 -30 -10 -11 -10 -26 -15 -35 -11
-25 9 -2 42 40 57 19 7 35 19 35 26 0 23 -49 14 -81 -15z"/>
<path d="M4821 4953 c-97 -48 -183 -208 -200 -372 l-6 -64 -47 95 c-74 149
-156 227 -240 228 l-33 1 25 15 25 14 -30 -2 c-18 -2 -29 -8 -27 -15 1 -7 -6
-13 -17 -13 -30 0 -70 -38 -82 -81 -7 -21 -10 -42 -7 -45 4 -3 20 2 38 11 52
27 120 29 157 6 46 -29 139 -146 176 -221 32 -65 32 -65 32 -227 0 -88 4 -165
8 -170 14 -13 96 -6 123 11 33 23 31 49 -17 167 -35 88 -41 112 -41 179 -1 92
19 156 71 237 45 70 84 104 162 144 33 16 60 35 60 42 7 69 -54 97 -130 60z"/>
<path d="M4600 4915 c0 -25 -2 -45 -5 -45 -3 0 -14 9 -26 21 -23 23 -42 21
-47 -5 -3 -14 1 -17 18 -11 30 9 50 -11 50 -52 0 -40 24 -42 26 -2 2 63 1 62
30 40 21 -16 30 -18 40 -10 22 18 16 32 -10 25 -30 -8 -52 17 -48 55 3 21 -1
29 -12 29 -12 0 -16 -11 -16 -45z"/>
<path d="M4315 4898 c11 -6 28 -20 37 -32 9 -11 20 -18 23 -14 10 10 -41 58
-62 58 -16 -1 -16 -2 2 -12z"/>
<path d="M4424 4874 c-17 -24 -16 -26 7 -49 30 -29 82 -45 73 -22 -3 8 -1 18
5 22 17 10 13 33 -9 55 -27 27 -56 25 -76 -6z m60 0 c18 -18 18 -17 10 -38 -3
-9 -14 -16 -25 -16 -24 0 -40 29 -28 52 12 22 23 23 43 2z"/>
<path d="M1817 4843 c-3 -5 -2 -15 4 -23 5 -8 9 -43 9 -76 0 -41 5 -66 14 -73
9 -7 17 -8 20 -3 3 6 -1 12 -9 16 -24 9 -18 26 26 78 46 55 44 82 -2 30 -16
-17 -30 -32 -32 -32 -2 0 -3 16 -3 35 0 35 -17 65 -27 48z"/>
<path d="M4924 4839 c-17 -5 -38 -16 -45 -25 -11 -14 -11 -18 4 -29 10 -7 27
-11 37 -8 23 6 25 0 8 -27 -11 -17 -10 -25 2 -48 31 -55 113 -31 113 34 0 43
-26 59 -93 58 -69 -1 -79 11 -19 23 22 4 40 12 40 18 1 13 -11 14 -47 4z m78
-76 c22 -20 24 -69 2 -77 -15 -6 -64 34 -64 53 0 10 28 41 37 41 4 0 15 -7 25
-17z"/>
<path d="M4548 4794 c-24 -23 0 -123 35 -153 13 -10 16 -7 22 21 4 18 18 52
32 76 25 45 25 59 -1 49 -8 -3 -23 -32 -32 -63 -14 -48 -18 -54 -26 -39 -6 10
-13 40 -17 67 -3 27 -9 46 -13 42z"/>
<path d="M4793 4763 c-35 -14 17 -112 68 -128 44 -14 63 34 33 81 -25 38 -72
59 -101 47z m41 -18 c17 -13 17 -15 3 -29 -9 -9 -18 -16 -21 -16 -10 0 -27 40
-21 50 8 13 16 12 39 -5z m52 -56 c22 -43 5 -57 -32 -26 -24 21 -27 27 -15 41
19 23 28 20 47 -15z"/>
<path d="M4282 4718 c-32 -32 -3 -134 54 -191 41 -41 73 -46 100 -13 28 32 24
69 -12 133 -41 72 -108 105 -142 71z m70 -25 c15 -15 28 -30 28 -35 0 -4 -14
-15 -31 -24 -26 -13 -33 -14 -40 -2 -24 36 -22 88 3 88 6 0 25 -12 40 -27z
m62 -93 c41 -104 -9 -126 -73 -33 l-22 33 33 20 c18 11 36 20 39 20 4 0 14
-18 23 -40z"/>
<path d="M5027 4664 c-4 -4 -1 -14 5 -22 11 -13 6 -14 -40 -7 -32 4 -52 3 -52
-3 0 -15 90 -19 109 -5 14 11 15 13 0 28 -8 8 -18 12 -22 9z"/>
<path d="M4738 4650 c-28 -17 -35 -68 -25 -169 7 -68 7 -103 -1 -125 -13 -34
-3 -52 24 -42 14 5 16 17 11 74 -2 37 -8 76 -13 87 -4 11 22 -8 59 -41 49 -45
73 -61 87 -57 26 7 26 10 -12 41 -79 65 -148 137 -148 154 0 11 15 27 35 40
35 20 42 41 14 45 -8 2 -22 -2 -31 -7z"/>
<path d="M986 4605 c-19 -29 -20 -49 -3 -67 7 -7 16 -21 20 -31 10 -27 36 -32
68 -13 23 13 29 14 29 4 0 -8 -5 -19 -12 -26 -9 -9 -8 -12 4 -12 19 0 30 24
22 45 -8 19 -29 19 -59 -1 -21 -14 -24 -14 -34 3 -7 14 -5 23 11 41 17 18 18
22 6 22 -9 0 -18 -7 -22 -15 -3 -8 -10 -15 -16 -15 -16 0 -12 46 5 60 8 7 15
16 15 21 0 17 -18 9 -34 -16z"/>
<path d="M1796 4591 c-9 -16 -30 -41 -47 -56 -26 -21 -30 -28 -18 -36 19 -12
49 -11 49 1 0 6 -7 10 -15 10 -10 0 0 15 25 38 22 22 40 46 40 55 0 26 -18 20
-34 -12z"/>
<path d="M4777 4594 c-12 -13 -8 -44 7 -44 9 0 12 7 9 20 -7 25 0 25 48 -2 30
-16 42 -19 51 -10 8 8 5 14 -14 21 -40 15 -93 23 -101 15z"/>
<path d="M4954 4590 c-11 -4 -27 -23 -34 -41 -12 -28 -11 -36 3 -60 20 -36 12
-36 -35 -4 -44 30 -48 30 -48 6 0 -38 139 -61 193 -32 67 36 42 141 -33 140
-14 0 -34 -4 -46 -9z m84 -36 c45 -31 15 -74 -53 -74 -34 0 -47 5 -55 19 -14
27 -4 48 28 60 39 14 55 13 80 -5z"/>
<path d="M4450 4499 c-14 -26 11 -69 39 -69 11 0 21 -6 24 -12 7 -20 17 -4 24
36 7 44 -9 66 -48 66 -18 0 -32 -7 -39 -21z m51 1 c22 -12 26 -50 5 -50 -27 0
-46 12 -46 29 0 31 11 36 41 21z"/>
<path d="M953 4463 c-22 -8 -14 -20 11 -16 16 3 31 -2 45 -16 25 -25 26 -35 5
-56 -21 -21 -34 -16 -61 25 l-23 33 0 -31 c0 -49 35 -67 100 -52 78 19 76 1
-2 -24 -10 -3 -18 -10 -18 -16 0 -20 40 -10 71 18 40 35 32 57 -17 49 -31 -5
-33 -4 -24 14 11 20 -1 56 -24 71 -12 9 -44 9 -63 1z"/>
<path d="M1131 4470 c-9 -21 -10 -80 -1 -80 5 0 10 7 10 15 0 9 6 12 15 9 8
-4 15 -1 15 5 0 6 -6 11 -14 11 -8 0 -17 10 -19 23 -2 12 -5 20 -6 17z"/>
<path d="M1647 4463 c-11 -10 -8 -25 4 -18 5 4 22 4 36 0 24 -6 25 -7 9 -23
-13 -14 -20 -14 -36 -4 -22 13 -27 3 -8 -16 19 -19 35 -14 69 21 29 29 31 30
16 5 -19 -31 -21 -38 -9 -38 5 0 14 12 21 27 14 31 0 53 -22 34 -11 -9 -17 -8
-27 4 -13 15 -42 20 -53 8z"/>
<path d="M4390 4457 c0 -8 -13 -17 -30 -20 -47 -10 -35 -27 16 -24 51 2 72
-16 29 -27 -14 -4 -25 -11 -25 -16 0 -13 33 -13 46 0 7 7 17 5 30 -5 18 -14
18 -16 -16 -44 -29 -25 -33 -33 -24 -48 13 -20 37 -28 61 -19 12 5 13 10 5 18
-8 8 -15 8 -26 -1 -30 -25 -27 10 3 38 37 35 38 44 8 68 -13 10 -26 26 -30 36
-3 9 -11 17 -17 17 -6 0 -10 7 -8 16 2 10 -3 19 -9 21 -7 3 -13 -2 -13 -10z"/>
<path d="M1090 4430 c0 -5 5 -10 10 -10 6 0 10 5 10 10 0 6 -4 10 -10 10 -5 0
-10 -4 -10 -10z"/>
<path d="M1196 4431 c-4 -5 2 -7 13 -4 23 6 38 -14 22 -30 -8 -8 -14 -8 -23 1
-7 7 -17 12 -22 12 -6 -1 0 -10 13 -21 21 -18 26 -18 41 -4 21 19 36 20 20 0
-8 -10 -9 -15 -2 -15 16 0 34 37 22 45 -5 3 -14 4 -19 1 -5 -3 -11 1 -15 9 -6
16 -41 20 -50 6z"/>
<path d="M5035 4431 c-69 -17 -100 -51 -89 -96 3 -14 15 -30 26 -36 15 -8 17
-14 9 -22 -18 -18 -13 -65 9 -87 43 -43 170 -11 170 44 l0 24 -37 -19 c-40
-20 -118 -26 -128 -9 -13 20 6 50 31 50 33 0 64 17 64 35 0 18 -41 20 -57 4
-18 -18 -58 -7 -58 16 0 24 39 44 103 54 38 5 47 10 47 26 0 23 -37 29 -90 16z"/>
<path d="M1293 4376 c-15 -13 -25 -28 -21 -32 4 -4 16 4 27 17 l20 24 1 -37
c0 -21 3 -38 8 -38 4 0 7 20 7 45 0 25 -3 45 -7 45 -4 0 -20 -11 -35 -24z"/>
<path d="M1459 4372 c18 -61 38 -82 78 -82 9 0 3 10 -16 26 -18 14 -36 35 -42
47 -10 17 -9 19 7 12 39 -15 82 -22 95 -14 20 12 2 23 -39 24 -20 1 -49 5 -64
9 -26 8 -27 7 -19 -22z"/>
<path d="M1602 4393 c31 -67 52 -103 60 -103 6 0 8 6 5 13 -19 47 -19 47 1 47
12 0 24 5 27 11 11 17 -2 21 -25 7 -19 -12 -24 -10 -37 10 -14 20 -39 32 -31
15z"/>
<path d="M4533 4383 c-23 -8 -15 -35 7 -28 24 8 24 7 5 -38 -19 -45 -19 -57
-1 -57 12 0 26 58 26 105 0 15 -20 24 -37 18z"/>
<path d="M1153 4369 c-28 -10 -43 -39 -43 -84 0 -44 24 -103 45 -111 28 -11
29 6 2 34 -34 35 -34 45 -2 30 22 -10 30 -8 53 9 65 48 19 150 -55 122z m45
-21 c7 -7 12 -29 12 -50 0 -70 -70 -71 -72 -1 -2 51 32 79 60 51z"/>
<path d="M1580 4324 c0 -14 3 -15 18 -3 9 7 19 15 21 16 2 2 -5 3 -17 3 -14 0
-22 -6 -22 -16z"/>
<path d="M4822 4310 c-51 -37 -62 -72 -35 -108 26 -36 68 -40 99 -11 31 29 31
63 0 94 -14 14 -20 27 -15 30 11 8 12 25 1 25 -5 0 -28 -13 -50 -30z m40 -37
c22 -20 24 -66 3 -83 -12 -10 -20 -9 -40 4 -29 19 -33 56 -9 80 19 20 23 20
46 -1z"/>
<path d="M932 4314 c-21 -15 -30 -34 -14 -34 4 0 18 9 31 19 29 22 13 36 -17
15z"/>
<path d="M1676 4272 c-9 -17 -16 -37 -16 -45 0 -18 28 -42 37 -33 4 4 2 11 -6
15 -10 7 -10 15 4 41 11 21 13 36 7 42 -7 7 -16 0 -26 -20z"/>
<path d="M1470 4281 c0 -6 4 -12 9 -15 5 -4 12 -28 16 -56 l7 -49 34 50 c41
61 44 87 5 42 -25 -30 -50 -46 -37 -24 8 13 -11 61 -24 61 -5 0 -10 -4 -10 -9z"/>
<path d="M933 4266 c-19 -11 -20 -15 -10 -37 7 -13 20 -25 30 -27 19 -4 71 44
62 57 -3 6 -16 -1 -30 -15 -13 -13 -29 -24 -35 -24 -16 0 -12 30 5 36 8 4 15
10 15 15 0 11 -9 10 -37 -5z"/>
<path d="M1244 4266 c-3 -7 -4 -17 -3 -22 1 -5 -1 -17 -6 -27 -4 -10 -2 -23 5
-32 14 -17 66 -20 75 -5 4 6 -6 10 -23 10 -16 0 -35 7 -42 15 -13 15 -8 19 23
16 9 -1 17 3 17 8 0 6 -9 11 -20 11 -11 0 -20 5 -20 11 0 8 13 9 40 5 22 -3
40 -2 40 3 0 22 -77 29 -86 7z"/>
<path d="M1585 4245 c-39 -38 -28 -85 20 -85 42 0 59 44 29 74 -8 9 -12 20 -9
26 12 20 -16 10 -40 -15z m45 -46 c0 -22 -13 -31 -34 -23 -19 7 -21 35 -4 52
15 15 38 -3 38 -29z"/>
<path d="M1050 4225 c-12 -13 -39 -30 -58 -36 -33 -11 -34 -13 -17 -25 24 -18
36 -18 29 0 -3 9 5 16 23 20 39 10 73 34 73 51 0 23 -24 18 -50 -10z"/>
<path d="M4492 4226 c4 -19 -1 -27 -20 -36 -17 -8 -28 -8 -36 0 -14 14 -59 13
-54 -2 2 -6 23 -18 46 -26 23 -7 42 -17 42 -21 0 -3 -14 -12 -31 -18 -34 -13
-38 -45 -5 -51 14 -3 17 0 11 17 -5 17 -1 23 20 31 18 7 33 7 45 0 25 -14 40
-13 40 3 0 6 -19 20 -42 30 l-43 17 33 20 c28 17 31 23 22 40 -15 28 -33 25
-28 -4z"/>
<path d="M4901 4155 c-17 -20 -31 -40 -31 -46 0 -16 31 -23 51 -11 26 17 29
15 29 -11 0 -55 76 -77 106 -32 21 32 12 69 -23 92 -25 17 -28 17 -85 -15 -63
-34 -77 -28 -26 12 24 18 30 28 22 36 -8 8 -20 1 -43 -25z m130 -35 c20 -11
26 -54 8 -65 -17 -11 -58 4 -69 24 -21 41 15 65 61 41z"/>
<path d="M5107 4153 c-13 -12 -7 -25 8 -20 25 10 25 -8 -1 -47 -23 -34 -25
-56 -4 -56 12 0 43 98 36 115 -6 16 -28 20 -39 8z"/>
<path d="M4766 4129 c-27 -21 -34 -53 -15 -64 5 -4 14 -18 20 -32 12 -33 55
-28 82 9 27 37 16 46 -16 14 -27 -27 -57 -34 -57 -15 0 7 8 18 17 25 10 7 15
16 10 20 -4 4 -13 2 -19 -4 -16 -16 -28 -15 -28 3 0 9 11 21 25 27 14 6 25 17
25 25 0 18 -13 16 -44 -8z"/>
<path d="M4472 4088 c-25 -25 -6 -68 30 -68 10 0 18 -5 18 -11 0 -5 5 -7 10
-4 14 9 13 68 -2 83 -7 7 -19 12 -28 12 -9 0 -21 -5 -28 -12z m52 -25 c4 -9 2
-21 -3 -26 -12 -12 -51 9 -51 28 0 21 46 19 54 -2z"/>
<path d="M4599 4071 c-20 -16 -22 -23 -13 -38 21 -34 134 -26 134 9 0 9 -3 9
-12 0 -7 -7 -22 -12 -35 -12 -17 0 -23 6 -23 21 0 18 5 21 35 17 36 -4 47 5
19 16 -31 12 -82 6 -105 -13z m41 -27 c0 -16 -35 -19 -45 -5 -6 11 26 32 37
25 5 -3 8 -12 8 -20z"/>
<path d="M4370 4064 c0 -4 8 -13 18 -20 16 -13 16 -13 -3 -14 -17 -1 -16 -3 7
-16 48 -26 50 -92 2 -80 -26 7 -34 -11 -10 -20 20 -8 53 12 61 35 7 23 -10 69
-37 99 -21 21 -38 29 -38 16z"/>
<path d="M4880 4026 c0 -8 5 -18 12 -22 8 -5 9 -2 5 9 -8 21 -4 21 33 2 25
-13 30 -13 30 -2 0 8 -14 17 -31 21 -44 9 -49 8 -49 -8z"/>
<path d="M5078 3990 c-19 -15 -21 -22 -13 -46 8 -21 18 -30 38 -32 15 -2 27
-8 27 -15 0 -7 3 -8 10 -1 12 12 16 76 7 91 -12 20 -47 21 -69 3z m47 -14 c24
-17 13 -49 -16 -44 -31 4 -49 35 -29 48 20 13 23 12 45 -4z"/>
<path d="M4542 3988 c-55 -19 -126 -90 -158 -160 -28 -60 -29 -70 -29 -203 0
-138 0 -141 31 -195 44 -78 97 -113 178 -118 35 -2 80 1 99 7 52 17 112 75
156 148 l40 66 17 -59 c25 -87 61 -153 89 -164 58 -22 105 31 105 120 0 54 -8
62 -28 30 -28 -45 -102 -7 -141 73 l-20 42 74 182 c101 251 98 225 25 221
l-63 -3 -36 -102 c-37 -105 -51 -131 -51 -96 0 39 -31 123 -56 153 -15 17 -39
37 -55 45 -38 20 -136 27 -177 13z m178 -106 c48 -36 75 -99 75 -178 0 -63 -4
-80 -40 -149 -44 -88 -135 -190 -178 -200 -44 -11 -87 13 -108 61 -68 153 3
425 126 480 37 17 91 11 125 -14z"/>
<path d="M4810 3940 c0 -34 25 -90 40 -90 6 0 10 8 10 18 0 9 9 35 21 56 11
21 18 40 15 43 -10 11 -26 -9 -37 -48 -14 -46 -27 -40 -31 14 -4 44 -18 50
-18 7z"/>
<path d="M900 3872 c0 -64 20 -202 46 -322 89 -403 311 -797 606 -1076 309
-290 689 -481 1108 -556 166 -29 463 -36 638 -14 151 20 326 60 457 106 89 31
298 127 343 156 23 15 23 15 3 40 -10 13 -139 150 -285 303 l-266 279 -85 -30
c-204 -70 -459 -91 -665 -54 -560 100 -995 537 -1089 1096 l-18 105 -396 3
-397 2 0 -38z"/>
<path d="M5095 3863 c-46 -10 -73 -26 -85 -49 -12 -21 -11 -28 7 -52 15 -21
18 -33 11 -45 -6 -11 -5 -26 4 -45 11 -23 20 -27 61 -30 26 -2 47 1 47 7 0 5
3 16 6 24 4 12 -3 14 -38 10 -53 -6 -79 14 -53 41 9 8 21 13 28 10 7 -2 21 2
32 10 15 11 17 18 9 26 -9 9 -19 8 -40 -3 -32 -16 -54 -13 -54 8 0 23 42 45
88 45 39 0 43 2 40 23 -3 22 -24 29 -63 20z"/>
<path d="M4966 3701 c-21 -23 -46 -102 -46 -143 0 -34 48 -88 78 -88 11 0 31
9 46 21 67 53 1 179 -74 139 -29 -15 -25 -1 10 35 26 27 28 34 17 43 -11 9
-18 8 -31 -7z m62 -93 c15 -15 16 -72 2 -99 -24 -43 -80 -13 -80 43 0 51 49
85 78 56z"/>
<path d="M3910 3545 c-19 -21 -21 -27 -10 -40 12 -14 -7 -37 -153 -182 -146
-147 -168 -165 -182 -153 -14 12 -20 10 -41 -11 l-24 -25 332 -325 c183 -179
370 -360 416 -404 l83 -79 242 -38 c273 -42 281 -43 274 -25 -3 7 -24 121 -47
253 l-42 239 -176 178 c-98 98 -283 281 -413 407 l-236 229 -23 -24z"/>
<path d="M4816 3419 c-27 -32 -33 -54 -16 -64 6 -3 10 1 10 10 0 9 8 28 18 43
l17 26 5 -44 c3 -25 11 -45 19 -48 11 -4 12 2 6 24 -5 16 -9 41 -9 57 -1 35
-18 34 -50 -4z"/>
<path d="M4820 3310 c6 -12 10 -33 8 -48 -4 -36 -32 -36 -36 1 -2 15 -8 27
-13 27 -6 0 -9 -12 -7 -27 2 -20 -2 -28 -12 -28 -11 0 -16 13 -18 43 -4 50
-25 53 -30 4 -6 -55 10 -69 73 -69 60 0 75 12 75 59 -1 26 -22 58 -39 58 -9 0
-9 -5 -1 -20z"/>
<path d="M4551 3288 c-42 -22 -36 -36 12 -31 24 3 54 0 66 -6 28 -15 29 -61 1
-68 -21 -6 -26 -18 -11 -28 12 -7 51 43 51 66 0 25 -40 67 -70 74 -14 3 -36 0
-49 -7z"/>
<path d="M4931 3271 c-28 -28 -45 -95 -31 -122 25 -45 85 1 97 75 5 31 2 42
-12 52 -25 18 -31 18 -54 -5z m49 -27 c0 -24 -14 -30 -37 -16 -10 6 -9 13 3
30 18 27 34 20 34 -14z m-19 -34 c15 0 10 -23 -11 -50 -14 -19 -22 -22 -30
-13 -17 16 -3 76 17 69 8 -3 19 -6 24 -6z"/>
<path d="M4686 3177 c-44 -58 -27 -97 25 -58 l29 22 0 -25 c0 -58 80 -77 109
-25 12 22 12 29 0 55 -21 43 -72 45 -123 4 -52 -41 -68 -38 -26 5 24 25 31 38
23 46 -8 8 -18 1 -37 -24z m136 -34 c22 -20 24 -52 2 -60 -19 -7 -63 12 -70
32 -16 41 32 61 68 28z"/>
<path d="M4841 3043 c-28 -35 -36 -70 -21 -88 19 -23 48 -18 67 11 17 26 16
27 -11 50 -22 20 -24 25 -12 30 9 3 16 10 16 15 0 17 -19 9 -39 -18z m35 -37
c7 -19 -13 -56 -31 -56 -18 0 -20 41 -3 58 16 16 27 15 34 -2z"/>
<path d="M4130 1514 c-70 -24 -90 -61 -90 -168 l0 -76 -60 0 c-98 0 -140 -32
-140 -105 0 -27 8 -44 28 -65 37 -37 85 -43 327 -38 216 3 245 11 265 72 14
43 5 77 -26 107 -20 19 -39 24 -94 27 l-70 4 0 75 c0 76 -12 114 -46 144 -21
19 -71 30 -94 23z"/>
<path d="M434 1280 c-261 -46 -423 -309 -344 -561 60 -195 256 -325 457 -305
99 10 93 1 93 142 0 68 -1 124 -3 124 -1 0 -20 -9 -42 -20 -132 -67 -296 37
-295 189 1 114 99 212 210 211 22 -1 59 -12 113 -35 16 -7 17 3 17 118 l0 125
-32 5 c-74 13 -126 15 -174 7z"/>
<path d="M2333 1275 c-229 -51 -382 -269 -345 -491 16 -97 60 -180 131 -248
107 -101 249 -144 387 -115 l69 14 3 133 c2 123 -4 153 -24 121 -13 -21 -89
-49 -134 -49 -92 0 -177 67 -200 158 -40 159 112 299 268 248 28 -10 56 -24
62 -32 7 -7 16 -14 21 -14 5 0 9 56 9 126 l0 125 -32 13 c-53 22 -146 27 -215
11z"/>
<path d="M3083 1276 c-18 -8 -42 -30 -53 -48 -19 -31 -20 -50 -20 -371 0 -362
3 -387 51 -421 30 -20 98 -21 127 0 51 35 52 47 52 428 l0 356 -27 29 c-34 36
-85 47 -130 27z"/>
<path d="M3343 1283 c-22 -4 -23 -8 -23 -122 l0 -117 58 3 c44 3 64 0 89 -16
63 -39 67 -61 73 -319 l5 -234 33 -29 c59 -53 148 -35 178 37 18 42 20 446 3
526 -16 75 -51 138 -99 182 -54 49 -110 73 -196 86 -71 10 -83 10 -121 3z"/>
<path d="M4650 1273 c-68 -35 -70 -48 -70 -413 0 -192 4 -340 10 -362 23 -80
119 -106 182 -49 l33 29 5 235 c5 219 6 238 26 264 28 38 82 73 111 73 64 0
133 63 133 120 0 39 -37 90 -77 106 -29 13 -47 14 -95 5 -32 -5 -71 -16 -86
-24 -24 -11 -30 -11 -52 5 -39 27 -80 31 -120 11z"/>
<path d="M5490 1280 c-105 -20 -183 -63 -257 -143 -155 -168 -148 -431 16
-595 113 -113 300 -160 439 -112 l32 12 0 129 c0 119 -7 149 -26 118 -13 -21
-89 -49 -134 -49 -112 0 -210 98 -210 209 0 89 72 180 159 201 60 14 125 2
172 -31 15 -10 30 -19 33 -19 4 0 5 57 4 127 l-3 128 -35 11 c-52 17 -139 24
-190 14z"/>
<path d="M774 1265 c-17 -9 -37 -28 -45 -43 -18 -36 -23 -332 -14 -752 l7
-324 33 -33 c58 -58 150 -41 181 33 11 27 14 128 14 529 0 526 -1 537 -48 578
-28 26 -90 31 -128 12z"/>
<path d="M1171 1268 c-13 -7 -34 -26 -45 -41 -19 -26 -21 -44 -24 -233 -2
-117 1 -235 8 -277 27 -183 139 -286 329 -303 38 -4 81 -4 95 0 l26 6 0 121
c0 111 -1 121 -17 114 -67 -25 -148 -1 -183 57 -18 30 -20 50 -20 238 0 220
-7 264 -44 299 -29 27 -92 37 -125 19z"/>
<path d="M1692 1267 c-56 -32 -57 -35 -60 -387 -2 -179 0 -344 3 -368 3 -23
16 -54 28 -68 29 -33 92 -42 135 -20 61 31 62 39 62 423 0 330 -1 350 -20 381
-30 49 -97 67 -148 39z"/>
<path d="M2710 1273 c-8 -3 -25 -15 -37 -26 l-23 -20 0 -383 0 -383 26 -20
c38 -30 113 -29 141 2 42 46 43 54 43 409 0 325 -1 345 -20 376 -27 44 -81 63
-130 45z"/>
<path d="M5835 1268 c-45 -24 -45 -23 -45 -424 l0 -383 26 -20 c33 -26 100
-28 133 -5 48 34 51 59 51 414 0 364 -3 386 -59 414 -35 18 -77 20 -106 4z"/>
<path d="M4040 750 c0 -258 4 -280 52 -314 29 -20 97 -20 126 0 48 34 52 56
52 314 l0 240 -115 0 -115 0 0 -240z"/>
</g>
</svg>
