<?xml version="1.0" encoding="utf-8"?>
<!-- Generator: Adobe Illustrator 25.1.0, SVG Export Plug-In . SVG Version: 6.00 Build 0)  -->
<svg version="1.1" id="Layer_1" xmlns="http://www.w3.org/2000/svg" xmlns:xlink="http://www.w3.org/1999/xlink" x="0px" y="0px"
	 viewBox="0 0 1480 1319.3" style="enable-background:new 0 0 1480 1319.3;" xml:space="preserve">
<style type="text/css">
	.st0{fill:#FFFFFF;}
</style>
<g>
	<path class="st0" d="M1072.1,678.2l0.4,230.7c0,0-3.2,37.2,10,56.3c13.4,17.2,10.3,42-7,55.4c-12.8,10-30.4,11.1-44.4,2.8
		c-3.9-2.6-17.4-9.8-25-10.8H834.1c-11.8,0-21.3-9.5-21.3-21.3l0,0c0-11.8,9.5-21.3,21.3-21.3c0,0,0,0,0,0h155.1
		c26.6,0,41.1-18.1,41.1-45V396.8c0-27-14.5-45-41.1-45H834.1c-11.8,0-21.3-9.5-21.3-21.3l0,0c0-11.8,9.5-21.3,21.3-21.3
		c0,0,0,0,0,0h172.1c7.6-1,21.1-8.2,25-10.8c18.8-11.1,43-4.9,54.1,13.8c8.3,14,7.2,31.5-2.8,44.3c-13.2,19.2-10,56.3-10,56.3
		L1072.1,678.2z"/>
	<circle class="st0" cx="752.1" cy="989.3" r="39.5"/>
	<circle class="st0" cx="426.7" cy="672.3" r="37.5"/>
	<path class="st0" d="M446.9,309.2L446.9,309.2c-23.4,0-42.4,19-42.4,42.4l0,0v236.6c0,11.7,9.5,21.2,21.2,21.2l0,0
		c11.7,0,21.2-9.5,21.2-21.2c0,0,0,0,0,0V364.6c0-7.4,6-13.4,13.4-13.4c0,0,0,0,0,0l210.9,0.4c0,0,39-1.6,56.3,10
		c17.4,13.4,42.3,10.1,55.6-7.2s10.1-42.3-7.2-55.6c-14.3-11-34.1-11-48.4,0c-17.3,11.6-56.3,10-56.3,10L446.9,309"/>
	<path class="st0" d="M783.3,794.9c-11.6-17.3-11.6-49.8-11.6-49.8s0-32,11.6-49.3c13.4-17.4,10.1-42.3-7.2-55.6
		s-42.3-10.1-55.6,7.2c-11,14.3-11,34.1,0,48.4c11.6,17.3,11.6,49.3,11.6,49.3s0,32.5-11.6,49.8c-13.4,17.1-10.3,41.8,6.8,55.2
		c7,5.5,15.7,8.4,24.7,8.3c5.9,0,11.7-1.2,17-3.7c10.5-4.7,30.3-6,45.5-6.1c11.5-0.2,20.7-9.5,20.7-21l0,0
		c0-10.8-8.1-19.8-18.8-20.9C803.8,805.7,788.8,802.7,783.3,794.9z"/>
	<path class="st0" d="M927.5,647.9l0.3,91.1c0,0-1.6,39,10,56.3c13.4,17.4,10.1,42.3-7.2,55.6s-42.3,10.1-55.6-7.2
		c-11-14.3-11-34.1,0-48.4c11.6-17.3,10-56.3,10-56.3l0.3-91.1l-0.4-67.3c0,0,1.6-39-10-56.3c-13.4-17.4-10.1-42.3,7.2-55.6
		s42.3-10.1,55.6,7.2c11,14.3,11,34.1,0,48.4c-11.6,17.3-10,56.3-10,56.3L927.5,647.9z"/>
	<path class="st0" d="M558.5,970L558.5,970c0,23.3,18.9,42.3,42.3,42.3c0,0,0,0,0,0h66.9c11.7,0,21.1-9.5,21.1-21.1l0,0l0,0
		c0-11.7-9.5-21.1-21.1-21.1l0,0h-56.8c-5.8,0-10.4-4.7-10.4-10.4v-395c0-27,14.5-45,41.1-45h172.2c11.8,0,21.3-9.5,21.3-21.3l0,0
		c0-11.8-9.5-21.3-21.3-21.3H624.6c-7.6-1-21.1-8.2-25-10.8c-18.8-11-43-4.7-54,14.1c-8.1,13.9-7,31.3,2.8,44
		c13.2,19.2,10,56.3,10,56.3l0.4,389.3"/>
</g>
</svg>
